<svg width="300" height="300" viewBox="0 0 300 300" fill="none" xmlns="http://www.w3.org/2000/svg">
<path d="M187.5 0C249.632 0 300 50.368 300 112.5C300 174.632 249.632 225 187.5 225H45V300H0V0H187.5ZM45 180H187.5C224.779 180 255 149.779 255 112.5C255 75.2208 224.779 45 187.5 45H45V180Z" fill="#00FF88"/>
<path d="M45 89H130.5C134.642 89 138 92.3579 138 96.5C138 100.642 134.642 104 130.5 104H45V89Z" fill="#00FF88"/>
<path d="M45 122H130.5C134.642 122 138 125.358 138 129.5C138 133.642 134.642 137 130.5 137H45V122Z" fill="#00FF88"/>
<path d="M184.12 155.632V70H191.704V155.632H184.12ZM188.44 148.144C183.448 148.144 179.096 147.184 175.384 145.264C171.736 143.344 168.856 140.624 166.744 137.104C164.632 133.52 163.384 129.264 163 124.336L174.712 123.664C175.16 126.8 175.96 129.424 177.112 131.536C178.328 133.584 179.896 135.152 181.816 136.24C183.8 137.264 186.136 137.776 188.824 137.776C191.576 137.776 193.848 137.456 195.64 136.816C197.496 136.176 198.872 135.216 199.768 133.936C200.728 132.656 201.208 131.12 201.208 129.328C201.208 127.408 200.76 125.776 199.864 124.432C198.968 123.024 197.304 121.776 194.872 120.688C192.504 119.6 189.016 118.512 184.408 117.424C179.992 116.272 176.312 114.864 173.368 113.2C170.424 111.536 168.216 109.456 166.744 106.96C165.336 104.464 164.632 101.488 164.632 98.032C164.632 94.064 165.528 90.64 167.32 87.76C169.176 84.88 171.8 82.64 175.192 81.04C178.648 79.44 182.808 78.64 187.672 78.64C192.472 78.64 196.568 79.504 199.96 81.232C203.352 82.96 206.008 85.456 207.928 88.72C209.912 91.984 211.128 95.856 211.576 100.336L199.864 100.912C199.544 98.416 198.904 96.272 197.944 94.48C196.984 92.688 195.64 91.344 193.912 90.448C192.184 89.488 189.976 89.008 187.288 89.008C183.64 89.008 180.792 89.776 178.744 91.312C176.76 92.784 175.768 94.832 175.768 97.456C175.768 99.312 176.184 100.848 177.016 102.064C177.848 103.28 179.32 104.368 181.432 105.328C183.608 106.224 186.68 107.184 190.648 108.208C196.152 109.68 200.472 111.344 203.608 113.2C206.808 114.992 209.08 117.168 210.424 119.728C211.832 122.288 212.536 125.392 212.536 129.04C212.536 132.944 211.544 136.336 209.56 139.216C207.576 142.096 204.792 144.304 201.208 145.84C197.624 147.376 193.368 148.144 188.44 148.144Z" fill="#00FF88"/>
</svg>
